<svg xmlns="http://www.w3.org/2000/svg" width="140" height="61" viewBox="0 0 140 61">
    <g fill="#FFF" fill-rule="evenodd" opacity=".9">
        <path d="M85.645 37.731c-.197.163-.426.13-.588-.065l-1.57-2.083c-1.437-1.92-3.268-3.124-6.667-3.124-6.406 0-10.426-4.59-10.426-11.882 0-7.324 4.02-11.913 10.426-11.913 6.407 0 10.394 4.59 10.394 11.913 0 3.711-1.307 7.487-3.498 8.789-.392.228-.392.326 0 .456 1.897.684 2.778 1.497 3.792 2.8l1.47 1.985c.163.195.131.423-.065.586l-3.268 2.538zm-8.825-9.96c3.17 0 5.066-2.734 5.066-7.194 0-4.557-1.896-7.193-5.066-7.193-3.105 0-5.098 2.636-5.098 7.193 0 4.46 1.993 7.194 5.098 7.194zM96.137 31.677c0 .26-.163.423-.424.423h-4.445c-.262 0-.426-.162-.426-.423V9.445c0-.26.164-.424.426-.424h4.445c.26 0 .424.164.424.424v22.232zM126.403 25.102a100.686 100.686 0 0 0-1.503 6.608c-.034.26-.197.39-.459.39h-5.98c-.262 0-.426-.13-.458-.39-.36-1.888-.72-3.613-1.177-5.404l-1.013-4.232a68.666 68.666 0 0 1-.654-3.353c-.065-.455-.457-.455-.523 0a77.336 77.336 0 0 1-.653 3.353l-1.014 4.232c-.424 1.79-.784 3.516-1.176 5.404-.033.26-.197.39-.457.39h-5.981c-.262 0-.426-.13-.459-.39a100.685 100.685 0 0 0-1.503-6.608l-4.02-15.625c-.098-.26.065-.455.36-.455h4.51c.262 0 .425.13.49.358l2.222 8.788c.556 2.214 1.014 5.046 1.21 7.162.033.423.523.456.588 0 .294-2.084.818-4.948 1.438-7.162l2.386-8.788c.066-.228.229-.358.458-.358h3.726c.229 0 .392.13.457.358l2.42 8.788c.62 2.214 1.143 5.078 1.437 7.162.033.456.523.423.556 0 .164-2.116.653-4.948 1.209-7.162l2.223-8.788c.065-.228.228-.358.49-.358h4.51c.294 0 .458.195.36.455l-4.02 15.625zM138.955 31.677c0 .26-.164.423-.425.423h-4.445c-.262 0-.425-.162-.425-.423V9.445c0-.26.163-.424.425-.424h4.445c.261 0 .425.164.425.424v22.232zM40.74 42.306c-.54 0-.99.187-1.268.528-.71.872-.391 2.408.697 3.354.474.413 1.159.66 1.83.66.683 0 1.254-.255 1.606-.719.633-.845.268-2.042-.928-3.05-.592-.499-1.28-.773-1.936-.773m5.962-4.383c-.529-.154-.924-.04-1.119.316-.296.537-.077 1.6.52 2.527.603.939 1.115 1.415 1.523 1.415.14 0 .266-.06.364-.17.227-.26.302-.803.207-1.49-.096-.702-.53-2.147-1.495-2.598M58.465 59.36c.548.676-.286 1.363-.907.814-6.206-5.474-11.425-7.024-16.587-7.24-2.74-.113-5.463.148-8.31.398a130.795 130.795 0 0 1-2.485.204 28.539 28.539 0 0 1-3.052.165c-4.857 0-9.44-1.186-13.624-3.524-4.198-2.346-7.535-5.623-9.917-9.739C1.205 36.331 0 31.792 0 26.948c0-4.839 1.203-9.397 3.578-13.546 2.379-4.156 5.677-7.465 9.805-9.834A26.571 26.571 0 0 1 26.764 0c4.963 0 9.602 1.185 13.788 3.525 4.198 2.345 7.545 5.632 9.949 9.769 2.4 4.132 3.616 8.682 3.616 13.524 0 1.87-.181 3.696-.539 5.471-.046.258-.112.57-.206.934-.07.292-.144.582-.224.87l-.022-.012c-.48 1.533-1.376 3.703-3.042 6.488-.18.294-.279.07-.302-.093-.583-4.098-2.386-7.21-5.564-9.219l-.16-.097c-.52-.32-1.076-.61-1.669-.87a17.271 17.271 0 0 0-2.453-.855c-.54-.145-1.74-.082-1.305-.513.18-.177 2.782-.218 5.773-.03l.175.012c.055-.624.084-1.265.084-1.922 0-5.113-1.7-9.282-5.195-12.743-3.499-3.464-7.59-5.15-12.507-5.15-5.036 0-9.118 1.687-12.482 5.157-3.381 3.487-5.024 7.62-5.024 12.637 0 5.006 1.69 9.123 5.166 12.584 3.476 3.462 7.512 5.145 12.34 5.145.231 0 .46-.007.688-.014-.005-.058-.008-.117-.014-.174-.277-3.529-.336-6.462.393-5.278.257.418.513.813.768 1.193.952 1.418 1.894 2.584 2.832 3.55.047.05.094.096.142.144 3.431 3.469 6.809 4.322 10.4 5.2l.228.056c.589.144 1.182.29 1.783.45 4.268 1.135 8.89 2.963 14.284 9.621M71.902 50.195c.979 0 1.441-.446 1.441-1.101 0-.697-.518-1.115-1.455-1.115h-1.442v2.216h1.456zm-.126-3.122c.812 0 1.217-.417 1.217-1.073 0-.641-.405-.975-1.26-.975h-1.287v2.048h1.33zm-2.687-2.982h2.924c1.428 0 2.366.627 2.366 1.812 0 .682-.365 1.267-1.008 1.546v.014c.882.21 1.343.893 1.343 1.673 0 1.31-1.063 2.007-2.602 2.007h-3.023V44.09zM79.837 43.924c.937 0 1.987.32 2.658 1.03l-.643.949a2.876 2.876 0 0 0-1.96-.809c-1.427 0-2.462 1.073-2.462 2.509 0 1.435 1.035 2.536 2.505 2.536.783 0 1.637-.376 2.183-.948l.546.99c-.645.683-1.722 1.13-2.827 1.13-2.24 0-3.793-1.575-3.793-3.694 0-2.09 1.567-3.693 3.793-3.693M87.911 42.697h1.106V41.29h-1.106v1.408zm-2.35 0h1.119V41.29h-1.12v1.408zm3.498 4.125c-.042-1.212-.798-1.853-1.721-1.853-1.05 0-1.875.683-2.072 1.853h3.793zm-1.694-2.898c2.002 0 3.066 1.491 3.066 3.303 0 .18-.029.376-.056.57h-5.15c.07 1.52 1.161 2.342 2.435 2.342.755 0 1.525-.32 2.085-.822l.574.99c-.686.627-1.764 1.004-2.744 1.004-2.225 0-3.764-1.604-3.764-3.694 0-2.244 1.54-3.693 3.554-3.693zM95.846 44.09h6.186v7.053h-1.358v-5.895h-3.47v5.895h-1.358zM107.588 50.14c1.12 0 2.043-.907 2.043-2.509 0-1.533-.825-2.523-2.001-2.523-1.064 0-2.043.753-2.043 2.536 0 1.255.7 2.495 2 2.495zm-3.317-6.049h1.26v.627c0 .293-.042.53-.042.53h.028c.447-.85 1.343-1.324 2.38-1.324 1.916 0 3.105 1.505 3.105 3.692 0 2.245-1.343 3.694-3.204 3.694a2.602 2.602 0 0 1-2.197-1.198h-.028s.056.25.056.613v3.205h-1.358v-9.839zM116.18 50.14c1.33 0 2.436-1.06 2.436-2.537 0-1.463-1.106-2.509-2.435-2.509-1.344 0-2.435 1.046-2.435 2.509 0 1.477 1.091 2.536 2.435 2.536m-.014-6.215c2.113 0 3.82 1.547 3.82 3.679 0 2.146-1.707 3.707-3.806 3.707-2.114 0-3.82-1.56-3.82-3.707 0-2.132 1.706-3.679 3.806-3.679M121.765 44.09h1.301v5.882h2.617v-5.881h1.315v5.881h2.617v-5.881h1.302v5.881h1.008v2.844h-1.246v-1.673h-8.914zM138.292 46.822c-.042-1.212-.797-1.854-1.72-1.854-1.05 0-1.876.684-2.072 1.854h3.792zm-1.693-2.898c2.001 0 3.065 1.49 3.065 3.303 0 .18-.028.376-.056.57h-5.15c.07 1.52 1.161 2.342 2.435 2.342.756 0 1.525-.32 2.085-.822l.574.99c-.686.627-1.763 1.003-2.743 1.003-2.226 0-3.764-1.603-3.764-3.693 0-2.244 1.538-3.693 3.554-3.693z"/>
    </g>
</svg>
