<svg xmlns="http://www.w3.org/2000/svg" xmlns:xlink="http://www.w3.org/1999/xlink" width="480" height="720" viewBox="0 0 480 720">
    <defs>
        <path id="b" d="M13.333 440h373.334c7.363 0 13.333 5.97 13.333 13.333v373.334c0 7.363-5.97 13.333-13.333 13.333H13.333C5.97 840 0 834.03 0 826.667V453.333C0 445.97 5.97 440 13.333 440z"/>
        <filter id="a" width="130.8%" height="130.8%" x="-15.4%" y="-11.6%" filterUnits="objectBoundingBox">
            <feOffset dy="15" in="SourceAlpha" result="shadowOffsetOuter1"/>
            <feGaussianBlur in="shadowOffsetOuter1" result="shadowBlurOuter1" stdDeviation="18"/>
            <feColorMatrix in="shadowBlurOuter1" values="0 0 0 0 0.260230304 0 0 0 0 0.115951841 0 0 0 0 0.520673895 0 0 0 0.5 0"/>
        </filter>
        <path id="c" d="M19.76.32H.117V20H19.76z"/>
        <path id="e" d="M19.643.32H.001V20h19.642z"/>
        <linearGradient id="g" x1="0%" x2="100.141%" y1="50.052%" y2="50.052%">
            <stop offset="0%" stop-color="#5BAAE3"/>
            <stop offset="33%" stop-color="#58A1DC"/>
            <stop offset="87%" stop-color="#4F89C8"/>
            <stop offset="100%" stop-color="#4C82C3"/>
        </linearGradient>
        <linearGradient id="h" x1="0%" x2="100.088%" y1="49.909%" y2="49.909%">
            <stop offset="0%" stop-color="#363C61"/>
            <stop offset="100%" stop-color="#4D64A9"/>
        </linearGradient>
        <path id="i" d="M.016 21.998H76V.235H.016z"/>
        <path id="l" d="M98.333 637h204c17.305 0 31.334 14.028 31.334 31.333s-14.029 31.334-31.334 31.334h-204C81.028 699.667 67 685.638 67 668.333S81.028 637 98.333 637z"/>
        <filter id="k" width="128.5%" height="221.3%" x="-14.3%" y="-35.1%" filterUnits="objectBoundingBox">
            <feOffset dy="16" in="SourceAlpha" result="shadowOffsetOuter1"/>
            <feGaussianBlur in="shadowOffsetOuter1" result="shadowBlurOuter1" stdDeviation="10"/>
            <feColorMatrix in="shadowBlurOuter1" values="0 0 0 0 1 0 0 0 0 0.549019608 0 0 0 0 0 0 0 0 0.2 0"/>
        </filter>
        <path id="n" d="M13.333 0h373.334C394.03 0 400 5.97 400 13.333v373.334c0 7.363-5.97 13.333-13.333 13.333H13.333C5.97 400 0 394.03 0 386.667V13.333C0 5.97 5.97 0 13.333 0z"/>
        <filter id="m" width="130.8%" height="130.8%" x="-15.4%" y="-11.6%" filterUnits="objectBoundingBox">
            <feOffset dy="15" in="SourceAlpha" result="shadowOffsetOuter1"/>
            <feGaussianBlur in="shadowOffsetOuter1" result="shadowBlurOuter1" stdDeviation="18"/>
            <feColorMatrix in="shadowBlurOuter1" values="0 0 0 0 0.260230304 0 0 0 0 0.115951841 0 0 0 0 0.520673895 0 0 0 0.5 0"/>
        </filter>
        <path id="p" d="M13.333 0h373.334C394.03 0 400 5.97 400 13.333v373.334c0 7.363-5.97 13.333-13.333 13.333H13.333C5.97 400 0 394.03 0 386.667V13.333C0 5.97 5.97 0 13.333 0z"/>
        <filter id="o" width="130.8%" height="130.8%" x="-15.4%" y="-11.6%" filterUnits="objectBoundingBox">
            <feOffset dy="15" in="SourceAlpha" result="shadowOffsetOuter1"/>
            <feGaussianBlur in="shadowOffsetOuter1" result="shadowBlurOuter1" stdDeviation="18"/>
            <feColorMatrix in="shadowBlurOuter1" values="0 0 0 0 0.260230304 0 0 0 0 0.115951841 0 0 0 0 0.520673895 0 0 0 0.5 0"/>
        </filter>
        <path id="q" d="M19.76.32H.117V20H19.76z"/>
        <path id="s" d="M19.643.32H.001V20h19.642z"/>
        <path id="u" d="M.016 21.998H76V.235H.016z"/>
    </defs>
    <g fill="none" fill-rule="evenodd">
        <g transform="translate(40 -280)">
            <use fill="#000" filter="url(#a)" xlink:href="#b"/>
            <use fill="#FFF" xlink:href="#b"/>
        </g>
        <text fill="#0629A3" font-family="MuseoSansCyrl-300, Museo Sans Cyrl" font-size="17.333" font-weight="300" transform="translate(40 -280)">
            <tspan x="121.515" y="798.667">Разместить виджет</tspan>
        </text>
        <path fill="#FF8C00" d="M112 325.333h258.667V328H112z"/>
        <text fill="#000" font-family="MuseoSansCyrl-300, Museo Sans Cyrl" font-size="17.333" font-weight="300" opacity=".7" transform="translate(108 260)">
            <tspan x="4" y="16">Сумма</tspan>
        </text>
        <text fill="#000" font-family=".HelveticaNeueDeskInterface-Regular, .Helvetica Neue DeskInterface" font-size="26.667" opacity=".7" transform="translate(108 260)">
            <tspan x="249" y="54">₽</tspan>
        </text>
        <g transform="translate(194.667 443.68)">
            <mask id="d" fill="#fff">
                <use xlink:href="#c"/>
            </mask>
            <path fill="#FC9F3A" fill-rule="nonzero" d="M19.76 10.16c0 5.434-4.398 9.84-9.822 9.84-5.424 0-9.82-4.406-9.82-9.84 0-5.435 4.396-9.84 9.82-9.84s9.822 4.405 9.822 9.84z" mask="url(#d)"/>
        </g>
        <g transform="translate(182.667 443.68)">
            <mask id="f" fill="#fff">
                <use xlink:href="#e"/>
            </mask>
            <path fill="#F14840" fill-rule="nonzero" d="M19.643 10.16c0 5.434-4.397 9.84-9.821 9.84-5.424 0-9.821-4.406-9.821-9.84C0 4.725 4.398.32 9.822.32c5.424 0 9.821 4.405 9.821 9.84z" mask="url(#f)"/>
        </g>
        <path fill="#F46B3E" fill-rule="nonzero" d="M198.547 446.094a9.827 9.827 0 0 0-3.763 7.745 9.83 9.83 0 0 0 3.763 7.748 9.83 9.83 0 0 0 3.762-7.748 9.827 9.827 0 0 0-3.762-7.745"/>
        <g fill-rule="nonzero">
            <path fill="#3CA85B" d="M251.711 455.112h-.316l-1.85-6.57c-.315-1.112-1.31-1.877-2.443-1.875h-4.435v14.294h4.441v-8.446h.335l2.537 8.446h3.176l2.526-8.446h.316v8.446h4.442v-14.294h-4.436c-1.132-.002-2.128.763-2.442 1.876l-1.85 6.57z"/>
            <path fill="url(#g)" d="M35.224 0H25.39c.612 3.381 3.488 5.838 6.848 5.848h7.642A4.975 4.975 0 0 0 38.9 1.8 4.735 4.735 0 0 0 35.224 0z" transform="translate(242.667 446.667)"/>
            <path fill="#3CA85B" d="M262.345 446.667h4.442v14.294h-4.442zM282.667 460.967l-3.153-4.84a4.835 4.835 0 0 0 2.878-2.958h-13.695v7.792h4.417v-4.517h2.126l2.328 4.553 5.099-.03z"/>
        </g>
        <g fill="url(#h)" fill-rule="nonzero" transform="translate(108 446.333)">
            <path d="M17.333.213L11.36 14.76H7.467L4.533 3.36a1.613 1.613 0 0 0-.866-1.333A15.253 15.253 0 0 0 .04.693L.12.16h6.253c.86.048 1.568.694 1.694 1.547L9.613 9.88 13.44.16l3.893.053zm15.2 9.774c0-3.747-5.186-4-5.146-5.627 0-.507.493-1.053 1.56-1.187a6.933 6.933 0 0 1 3.626.64L33.213.8a9.88 9.88 0 0 0-3.44-.627c-3.626 0-6.186 1.934-6.213 4.694 0 2.04 1.827 3.186 3.213 3.866 1.387.68 1.907 1.147 1.907 1.76 0 .96-1.147 1.334-2.2 1.334A7.693 7.693 0 0 1 22.667 11L22 14.12c1.305.508 2.693.766 4.093.76 3.867 0 6.387-1.907 6.4-4.867l.04-.026zm9.56 4.8h3.4L42.56.213h-3.133a1.84 1.84 0 0 0-1.56 1.214l-5.52 13.333H36.2l.773-2.427h4.72l.4 2.454zm-4.066-5.48l1.933-5.334 1.12 5.334h-3.053zM22.56.213L19.52 14.76h-3.68L18.893.213h3.667z"/>
        </g>
        <g transform="translate(302.667 444)">
            <mask id="j" fill="#fff">
                <use xlink:href="#i"/>
            </mask>
            <path fill="#0023A0" d="M41.575 16.341c0 .154-.096.25-.249.25h-2.599c-.153 0-.249-.096-.249-.25V3.131c0-.155.096-.252.25-.252h2.598c.153 0 .25.097.25.252v13.21zm14.71-4.271l2.206-8.978c.038-.136.133-.213.286-.213h2.637c.172 0 .269.116.211.27 0 0-2.924 11.874-3.23 13.211-.035.152-.115.232-.268.232H54.63c-.153 0-.249-.077-.268-.232a51.874 51.874 0 0 0-.689-3.21l-.591-2.515a41.725 41.725 0 0 1-.383-1.992c-.038-.271-.267-.271-.306 0-.114.677-.268 1.47-.382 1.992l-.592 2.514a116.198 116.198 0 0 0-.689 3.211c-.02.155-.115.232-.267.232h-3.498c-.153 0-.23-.08-.268-.232-.338-1.337-3.23-13.21-3.23-13.21-.057-.155.038-.27.21-.27h2.638c.153 0 .248.076.287.212l2.183 8.978 2.404-8.978c.038-.136.134-.213.268-.213h2.178c.134 0 .23.077.269.213l2.38 8.978zm10.33 4.271c0 .154-.096.25-.25.25h-2.598c-.153 0-.249-.096-.249-.25V3.131c0-.155.096-.252.249-.252h2.599c.153 0 .248.097.248.252v13.21zM35.438 19.94c-.115.096-.248.076-.345-.04l-.916-1.237c-.842-1.142-1.912-1.857-3.9-1.857-3.746 0-6.097-2.727-6.097-7.06 0-4.352 2.35-7.078 6.097-7.078 3.746 0 6.078 2.726 6.078 7.078 0 2.206-.765 4.449-2.045 5.223-.23.135-.23.193 0 .27 1.108.406 1.625.89 2.217 1.663l.86 1.18c.096.117.076.251-.038.349l-1.911 1.509zm-5.161-5.92c1.854 0 2.962-1.624 2.962-4.274 0-2.707-1.108-4.274-2.962-4.274-1.816 0-2.982 1.567-2.982 4.274 0 2.65 1.166 4.275 2.982 4.275z" mask="url(#j)"/>
            <path fill="#FF8C00" d="M16.581 13.915c-.187-.056-.328-.014-.397.114-.105.194-.028.578.184.912.215.338.397.51.542.51.05 0 .094-.021.129-.061.08-.094.107-.29.073-.538-.034-.253-.188-.774-.53-.937m-2.118 1.581c-.192 0-.352.068-.45.19-.252.315-.14.869.247 1.21.169.15.412.239.65.239.243 0 .446-.092.57-.26.225-.304.096-.736-.33-1.1-.209-.18-.453-.279-.687-.279m6.293 6.152c-1.915-2.402-3.556-3.061-5.071-3.47-.213-.058-.424-.111-.633-.163l-.081-.02c-1.275-.317-2.474-.625-3.693-1.876l-.05-.051a9.217 9.217 0 0 1-1.005-1.281c-.091-.138-.182-.28-.273-.431-.259-.427-.238.63-.14 1.904l.005.063c-.08.002-.162.005-.244.005-1.714 0-3.147-.607-4.38-1.856-1.235-1.25-1.835-2.734-1.835-4.54 0-1.81.583-3.3 1.784-4.558 1.194-1.252 2.644-1.86 4.431-1.86 1.746 0 3.198.607 4.44 1.857 1.242 1.249 1.845 2.753 1.845 4.597 0 .237-.01.468-.03.693l-.061-.003c-1.063-.069-1.986-.054-2.05.01-.155.155.271.133.463.185.312.085.602.188.87.309.211.094.409.198.594.313l.056.036c1.128.724 1.769 1.847 1.976 3.325.008.06.043.14.107.033.591-1.004.909-1.787 1.08-2.34l.008.005a10.308 10.308 0 0 0 .153-.651c.126-.64.19-1.3.19-1.973 0-1.747-.431-3.39-1.284-4.88a9.313 9.313 0 0 0-3.532-3.524C12.911.662 11.264.235 9.503.235a9.312 9.312 0 0 0-4.751 1.287A9.372 9.372 0 0 0 1.27 5.069 9.836 9.836 0 0 0 0 9.956a9.7 9.7 0 0 0 1.272 4.866 9.252 9.252 0 0 0 3.521 3.514 9.67 9.67 0 0 0 4.837 1.27c.366 0 .727-.02 1.084-.058a88.16 88.16 0 0 0 .882-.074c1.01-.09 1.978-.185 2.95-.144 1.833.078 3.686.637 5.89 2.612.22.198.516-.05.321-.294" mask="url(#j)"/>
        </g>
        <text fill="#000" font-family="MuseoSansCyrl-300, Museo Sans Cyrl" font-size="26.667" font-weight="300" transform="translate(40 -280)">
            <tspan x="69.667" y="590.333">2 000</tspan>
        </text>
        <g transform="translate(40 -280)">
            <use fill="#000" filter="url(#k)" xlink:href="#l"/>
            <use fill="#FF8C00" xlink:href="#l"/>
        </g>
        <text fill="#FFF" font-family="MuseoSansCyrl-500, Museo Sans Cyrl" font-size="21.333" transform="translate(40 -280)">
            <tspan x="122.304" y="675">Помочь сейчас</tspan>
        </text>
        <g>
            <g transform="translate(40 600)">
                <use fill="#000" filter="url(#m)" xlink:href="#n"/>
                <use fill="#FFF" xlink:href="#n"/>
            </g>
            <text fill="#000" font-family="MuseoSansCyrl-300, Museo Sans Cyrl" font-size="17.333" font-weight="300" opacity=".7" transform="translate(108 700)">
                <tspan x="4" y="16">Сумма</tspan>
            </text>
        </g>
        <g>
            <g transform="translate(40 -280)">
                <use fill="#000" filter="url(#o)" xlink:href="#p"/>
                <use fill="#FFF" xlink:href="#p"/>
            </g>
            <text fill="#0629A3" font-family="MuseoSansCyrl-300, Museo Sans Cyrl" font-size="17.333" font-weight="300" transform="translate(40 -280)">
                <tspan x="121.515" y="358.667">Разместить виджет</tspan>
            </text>
            <g transform="translate(194.667 3.68)">
                <mask id="r" fill="#fff">
                    <use xlink:href="#q"/>
                </mask>
                <path fill="#FC9F3A" fill-rule="nonzero" d="M19.76 10.16c0 5.434-4.398 9.84-9.822 9.84-5.424 0-9.82-4.406-9.82-9.84 0-5.435 4.396-9.84 9.82-9.84s9.822 4.405 9.822 9.84z" mask="url(#r)"/>
            </g>
            <g transform="translate(182.667 3.68)">
                <mask id="t" fill="#fff">
                    <use xlink:href="#s"/>
                </mask>
                <path fill="#F14840" fill-rule="nonzero" d="M19.643 10.16c0 5.434-4.397 9.84-9.821 9.84-5.424 0-9.821-4.406-9.821-9.84C0 4.725 4.398.32 9.822.32c5.424 0 9.821 4.405 9.821 9.84z" mask="url(#t)"/>
            </g>
            <path fill="#F46B3E" fill-rule="nonzero" d="M198.547 6.094a9.827 9.827 0 0 0-3.763 7.745 9.83 9.83 0 0 0 3.763 7.748 9.83 9.83 0 0 0 3.762-7.748 9.827 9.827 0 0 0-3.762-7.745"/>
            <g fill-rule="nonzero">
                <path fill="#3CA85B" d="M251.711 15.112h-.316l-1.85-6.57c-.315-1.112-1.31-1.877-2.443-1.875h-4.435V20.96h4.441v-8.446h.335l2.537 8.446h3.176l2.526-8.446h.316v8.446h4.442V6.667h-4.436c-1.132-.002-2.128.763-2.442 1.876l-1.85 6.57z"/>
                <path fill="url(#g)" d="M35.224 0H25.39c.612 3.381 3.488 5.838 6.848 5.848h7.642A4.975 4.975 0 0 0 38.9 1.8 4.735 4.735 0 0 0 35.224 0z" transform="translate(242.667 6.667)"/>
                <path fill="#3CA85B" d="M262.345 6.667h4.442V20.96h-4.442zM282.667 20.967l-3.153-4.84a4.835 4.835 0 0 0 2.878-2.958h-13.695v7.792h4.417v-4.517h2.126l2.328 4.553 5.099-.03z"/>
            </g>
            <g fill="url(#h)" fill-rule="nonzero" transform="translate(108 6.333)">
                <path d="M17.333.213L11.36 14.76H7.467L4.533 3.36a1.613 1.613 0 0 0-.866-1.333A15.253 15.253 0 0 0 .04.693L.12.16h6.253c.86.048 1.568.694 1.694 1.547L9.613 9.88 13.44.16l3.893.053zm15.2 9.774c0-3.747-5.186-4-5.146-5.627 0-.507.493-1.053 1.56-1.187a6.933 6.933 0 0 1 3.626.64L33.213.8a9.88 9.88 0 0 0-3.44-.627c-3.626 0-6.186 1.934-6.213 4.694 0 2.04 1.827 3.186 3.213 3.866 1.387.68 1.907 1.147 1.907 1.76 0 .96-1.147 1.334-2.2 1.334A7.693 7.693 0 0 1 22.667 11L22 14.12c1.305.508 2.693.766 4.093.76 3.867 0 6.387-1.907 6.4-4.867l.04-.026zm9.56 4.8h3.4L42.56.213h-3.133a1.84 1.84 0 0 0-1.56 1.214l-5.52 13.333H36.2l.773-2.427h4.72l.4 2.454zm-4.066-5.48l1.933-5.334 1.12 5.334h-3.053zM22.56.213L19.52 14.76h-3.68L18.893.213h3.667z"/>
            </g>
            <g transform="translate(302.667 4)">
                <mask id="v" fill="#fff">
                    <use xlink:href="#u"/>
                </mask>
                <path fill="#0023A0" d="M41.575 16.341c0 .154-.096.25-.249.25h-2.599c-.153 0-.249-.096-.249-.25V3.131c0-.155.096-.252.25-.252h2.598c.153 0 .25.097.25.252v13.21zm14.71-4.271l2.206-8.978c.038-.136.133-.213.286-.213h2.637c.172 0 .269.116.211.27 0 0-2.924 11.874-3.23 13.211-.035.152-.115.232-.268.232H54.63c-.153 0-.249-.077-.268-.232a51.874 51.874 0 0 0-.689-3.21l-.591-2.515a41.725 41.725 0 0 1-.383-1.992c-.038-.271-.267-.271-.306 0-.114.677-.268 1.47-.382 1.992l-.592 2.514a116.198 116.198 0 0 0-.689 3.211c-.02.155-.115.232-.267.232h-3.498c-.153 0-.23-.08-.268-.232-.338-1.337-3.23-13.21-3.23-13.21-.057-.155.038-.27.21-.27h2.638c.153 0 .248.076.287.212l2.183 8.978 2.404-8.978c.038-.136.134-.213.268-.213h2.178c.134 0 .23.077.269.213l2.38 8.978zm10.33 4.271c0 .154-.096.25-.25.25h-2.598c-.153 0-.249-.096-.249-.25V3.131c0-.155.096-.252.249-.252h2.599c.153 0 .248.097.248.252v13.21zM35.438 19.94c-.115.096-.248.076-.345-.04l-.916-1.237c-.842-1.142-1.912-1.857-3.9-1.857-3.746 0-6.097-2.727-6.097-7.06 0-4.352 2.35-7.078 6.097-7.078 3.746 0 6.078 2.726 6.078 7.078 0 2.206-.765 4.449-2.045 5.223-.23.135-.23.193 0 .27 1.108.406 1.625.89 2.217 1.663l.86 1.18c.096.117.076.251-.038.349l-1.911 1.509zm-5.161-5.92c1.854 0 2.962-1.624 2.962-4.274 0-2.707-1.108-4.274-2.962-4.274-1.816 0-2.982 1.567-2.982 4.274 0 2.65 1.166 4.275 2.982 4.275z" mask="url(#v)"/>
                <path fill="#FF8C00" d="M16.581 13.915c-.187-.056-.328-.014-.397.114-.105.194-.028.578.184.912.215.338.397.51.542.51.05 0 .094-.021.129-.061.08-.094.107-.29.073-.538-.034-.253-.188-.774-.53-.937m-2.118 1.581c-.192 0-.352.068-.45.19-.252.315-.14.869.247 1.21.169.15.412.239.65.239.243 0 .446-.092.57-.26.225-.304.096-.736-.33-1.1-.209-.18-.453-.279-.687-.279m6.293 6.152c-1.915-2.402-3.556-3.061-5.071-3.47-.213-.058-.424-.111-.633-.163l-.081-.02c-1.275-.317-2.474-.625-3.693-1.876l-.05-.051a9.217 9.217 0 0 1-1.005-1.281c-.091-.138-.182-.28-.273-.431-.259-.427-.238.63-.14 1.904l.005.063c-.08.002-.162.005-.244.005-1.714 0-3.147-.607-4.38-1.856-1.235-1.25-1.835-2.734-1.835-4.54 0-1.81.583-3.3 1.784-4.558 1.194-1.252 2.644-1.86 4.431-1.86 1.746 0 3.198.607 4.44 1.857 1.242 1.249 1.845 2.753 1.845 4.597 0 .237-.01.468-.03.693l-.061-.003c-1.063-.069-1.986-.054-2.05.01-.155.155.271.133.463.185.312.085.602.188.87.309.211.094.409.198.594.313l.056.036c1.128.724 1.769 1.847 1.976 3.325.008.06.043.14.107.033.591-1.004.909-1.787 1.08-2.34l.008.005a10.308 10.308 0 0 0 .153-.651c.126-.64.19-1.3.19-1.973 0-1.747-.431-3.39-1.284-4.88a9.313 9.313 0 0 0-3.532-3.524C12.911.662 11.264.235 9.503.235a9.312 9.312 0 0 0-4.751 1.287A9.372 9.372 0 0 0 1.27 5.069 9.836 9.836 0 0 0 0 9.956a9.7 9.7 0 0 0 1.272 4.866 9.252 9.252 0 0 0 3.521 3.514 9.67 9.67 0 0 0 4.837 1.27c.366 0 .727-.02 1.084-.058a88.16 88.16 0 0 0 .882-.074c1.01-.09 1.978-.185 2.95-.144 1.833.078 3.686.637 5.89 2.612.22.198.516-.05.321-.294" mask="url(#v)"/>
            </g>
        </g>
    </g>
</svg>
